<svg xmlns="http://www.w3.org/2000/svg" width="1200" height="120" viewBox="0 0 1200 120" role="img" aria-label="Thanks for visiting">
<defs><linearGradient id="fg" x1="0%" y1="0%" x2="100%" y2="0%"><stop offset="0%" stop-color="#E5484D"/><stop offset="50%" stop-color="#7C3AED"/><stop offset="100%" stop-color="#0891B2"/></linearGradient></defs>
<style>.t { font: 600 15px ui-monospace, SFMono-Regular, 'SF Mono', Menlo, Consolas, 'Liberation Mono', monospace; fill: #59636E; }</style>
<path fill="url(#fg)" opacity="0.35" d="M0,120 L0,70.0 L40,77.3 L80,83.4 L120,87.1 L160,87.9 L200,85.6 L240,80.6 L280,73.7 L320,66.3 L360,59.4 L400,54.4 L440,52.1 L480,52.9 L520,56.6 L560,62.7 L600,70.0 L640,77.3 L680,83.4 L720,87.1 L760,87.9 L800,85.6 L840,80.6 L880,73.7 L920,66.3 L960,59.4 L1000,54.4 L1040,52.1 L1080,52.9 L1120,56.6 L1160,62.7 L1200,70.0 L1200,120 Z"><animate attributeName="d" dur="9s" repeatCount="indefinite" values="M0,120 L0,70.0 L40,77.3 L80,83.4 L120,87.1 L160,87.9 L200,85.6 L240,80.6 L280,73.7 L320,66.3 L360,59.4 L400,54.4 L440,52.1 L480,52.9 L520,56.6 L560,62.7 L600,70.0 L640,77.3 L680,83.4 L720,87.1 L760,87.9 L800,85.6 L840,80.6 L880,73.7 L920,66.3 L960,59.4 L1000,54.4 L1040,52.1 L1080,52.9 L1120,56.6 L1160,62.7 L1200,70.0 L1200,120 Z;M0,120 L0,70.0 L40,62.7 L80,56.6 L120,52.9 L160,52.1 L200,54.4 L240,59.4 L280,66.3 L320,73.7 L360,80.6 L400,85.6 L440,87.9 L480,87.1 L520,83.4 L560,77.3 L600,70.0 L640,62.7 L680,56.6 L720,52.9 L760,52.1 L800,54.4 L840,59.4 L880,66.3 L920,73.7 L960,80.6 L1000,85.6 L1040,87.9 L1080,87.1 L1120,83.4 L1160,77.3 L1200,70.0 L1200,120 Z;M0,120 L0,70.0 L40,77.3 L80,83.4 L120,87.1 L160,87.9 L200,85.6 L240,80.6 L280,73.7 L320,66.3 L360,59.4 L400,54.4 L440,52.1 L480,52.9 L520,56.6 L560,62.7 L600,70.0 L640,77.3 L680,83.4 L720,87.1 L760,87.9 L800,85.6 L840,80.6 L880,73.7 L920,66.3 L960,59.4 L1000,54.4 L1040,52.1 L1080,52.9 L1120,56.6 L1160,62.7 L1200,70.0 L1200,120 Z"/></path><path fill="url(#fg)" opacity="0.55" d="M0,120 L0,94.1 L40,95.9 L80,95.6 L120,93.3 L160,89.4 L200,84.6 L240,79.6 L280,75.5 L320,72.8 L360,72.0 L400,73.3 L440,76.5 L480,81.0 L520,85.9 L560,90.6 L600,94.1 L640,95.9 L680,95.6 L720,93.3 L760,89.4 L800,84.6 L840,79.6 L880,75.5 L920,72.8 L960,72.0 L1000,73.3 L1040,76.5 L1080,81.0 L1120,85.9 L1160,90.6 L1200,94.1 L1200,120 Z"><animate attributeName="d" dur="13s" repeatCount="indefinite" values="M0,120 L0,94.1 L40,95.9 L80,95.6 L120,93.3 L160,89.4 L200,84.6 L240,79.6 L280,75.5 L320,72.8 L360,72.0 L400,73.3 L440,76.5 L480,81.0 L520,85.9 L560,90.6 L600,94.1 L640,95.9 L680,95.6 L720,93.3 L760,89.4 L800,84.6 L840,79.6 L880,75.5 L920,72.8 L960,72.0 L1000,73.3 L1040,76.5 L1080,81.0 L1120,85.9 L1160,90.6 L1200,94.1 L1200,120 Z;M0,120 L0,73.9 L40,72.1 L80,72.4 L120,74.7 L160,78.6 L200,83.4 L240,88.4 L280,92.5 L320,95.2 L360,96.0 L400,94.7 L440,91.5 L480,87.0 L520,82.1 L560,77.4 L600,73.9 L640,72.1 L680,72.4 L720,74.7 L760,78.6 L800,83.4 L840,88.4 L880,92.5 L920,95.2 L960,96.0 L1000,94.7 L1040,91.5 L1080,87.0 L1120,82.1 L1160,77.4 L1200,73.9 L1200,120 Z;M0,120 L0,94.1 L40,95.9 L80,95.6 L120,93.3 L160,89.4 L200,84.6 L240,79.6 L280,75.5 L320,72.8 L360,72.0 L400,73.3 L440,76.5 L480,81.0 L520,85.9 L560,90.6 L600,94.1 L640,95.9 L680,95.6 L720,93.3 L760,89.4 L800,84.6 L840,79.6 L880,75.5 L920,72.8 L960,72.0 L1000,73.3 L1040,76.5 L1080,81.0 L1120,85.9 L1160,90.6 L1200,94.1 L1200,120 Z"/></path><path fill="url(#fg)" opacity="0.9" d="M0,120 L0,105.3 L40,103.3 L80,100.4 L120,97.1 L160,93.9 L200,91.5 L240,90.2 L280,90.2 L320,91.6 L360,94.1 L400,97.2 L440,100.6 L480,103.4 L520,105.3 L560,106.0 L600,105.3 L640,103.3 L680,100.4 L720,97.1 L760,93.9 L800,91.5 L840,90.2 L880,90.2 L920,91.6 L960,94.1 L1000,97.2 L1040,100.6 L1080,103.4 L1120,105.3 L1160,106.0 L1200,105.3 L1200,120 Z"><animate attributeName="d" dur="7s" repeatCount="indefinite" values="M0,120 L0,105.3 L40,103.3 L80,100.4 L120,97.1 L160,93.9 L200,91.5 L240,90.2 L280,90.2 L320,91.6 L360,94.1 L400,97.2 L440,100.6 L480,103.4 L520,105.3 L560,106.0 L600,105.3 L640,103.3 L680,100.4 L720,97.1 L760,93.9 L800,91.5 L840,90.2 L880,90.2 L920,91.6 L960,94.1 L1000,97.2 L1040,100.6 L1080,103.4 L1120,105.3 L1160,106.0 L1200,105.3 L1200,120 Z;M0,120 L0,90.7 L40,92.7 L80,95.6 L120,98.9 L160,102.1 L200,104.5 L240,105.8 L280,105.8 L320,104.4 L360,101.9 L400,98.8 L440,95.4 L480,92.6 L520,90.7 L560,90.0 L600,90.7 L640,92.7 L680,95.6 L720,98.9 L760,102.1 L800,104.5 L840,105.8 L880,105.8 L920,104.4 L960,101.9 L1000,98.8 L1040,95.4 L1080,92.6 L1120,90.7 L1160,90.0 L1200,90.7 L1200,120 Z;M0,120 L0,105.3 L40,103.3 L80,100.4 L120,97.1 L160,93.9 L200,91.5 L240,90.2 L280,90.2 L320,91.6 L360,94.1 L400,97.2 L440,100.6 L480,103.4 L520,105.3 L560,106.0 L600,105.3 L640,103.3 L680,100.4 L720,97.1 L760,93.9 L800,91.5 L840,90.2 L880,90.2 L920,91.6 L960,94.1 L1000,97.2 L1040,100.6 L1080,103.4 L1120,105.3 L1160,106.0 L1200,105.3 L1200,120 Z"/></path>
<text x="600" y="34" text-anchor="middle" class="t">built with curiosity, coffee and a lot of Claude</text>
</svg>
